<svg id="Layer_1" data-name="Layer 1" xmlns="http://www.w3.org/2000/svg" viewBox="0 0 509.76 159.5"><title>launch</title><path d="M182.36,128c-1.76,0-3-.45-3.56-1.35a5.16,5.16,0,0,1-.93-3V74.42Q177.87,71,182,71t4.27,3.42v46.4h23.81q2.57,0,2.57,3.5c.09,2.47-.76,3.7-2.57,3.7Z" style="fill:#454b54"/><path d="M229.34,128a14.52,14.52,0,0,1-4.21-.6,16.82,16.82,0,0,1-3.85-1.75v.07q-3.5-2.2-3.49-8.13v-3.49a11.71,11.71,0,0,1,1-5.09,8.55,8.55,0,0,1,2.89-3.46h-.07a13.72,13.72,0,0,1,3.78-1.82,13.35,13.35,0,0,1,3.85-.61H245V96.45a5.26,5.26,0,0,0-1.11-3.25,4.4,4.4,0,0,0-3.74-1.46h-8.34c-1.8,0-3.05.44-3.74,1.32a4.87,4.87,0,0,0-1,3.1v.57c0,2.47-1.34,3.71-4,3.71s-4-1.24-4-3.71v-.64a10.6,10.6,0,0,1,1-4.92,9.68,9.68,0,0,1,2.81-3.35h-.07a21,21,0,0,1,3.89-2,10.77,10.77,0,0,1,3.88-.78h10.84a10.71,10.71,0,0,1,3.81.78,19.21,19.21,0,0,1,3.81,2H249a8.76,8.76,0,0,1,2.85,3.53,11.84,11.84,0,0,1,1,5V125q0,3.42-3.92,3.42a13.36,13.36,0,0,1-1.46-.07,3,3,0,0,1-1.21-.39,2.42,2.42,0,0,1-.86-.93,3.47,3.47,0,0,1-.32-1.6L245,109.78h-14.4a6.45,6.45,0,0,0-2.42.35,2.92,2.92,0,0,0-1.36,1.14c-.38.81-.65,1.44-.82,1.89a4.54,4.54,0,0,0-.25,1.53v2.78a3.53,3.53,0,0,0,1.11,2.82,5.83,5.83,0,0,0,3.81,1h8c1.76,0,2.64,1.12,2.64,3.35a4.2,4.2,0,0,1-.64,2.39,2.23,2.23,0,0,1-2,1Z" style="fill:#454b54"/><path d="M296.34,116.62a12.09,12.09,0,0,1-1,5.06,8.72,8.72,0,0,1-2.85,3.56h.07a17.11,17.11,0,0,1-3.77,2,11,11,0,0,1-3.85.75H273.46a11,11,0,0,1-3.81-.75,17,17,0,0,1-3.82-2h.07a8.88,8.88,0,0,1-2.85-3.56,12.25,12.25,0,0,1-1-5.06V88c0-2.28,1.3-3.42,3.92-3.42s3.92,1.14,3.92,3.42v28a6.18,6.18,0,0,0,1,3.49c.62,1.14,1.91,1.71,3.85,1.71h8.91q2.85,0,3.78-1.71l-.07.07a6.34,6.34,0,0,0,1.14-3.56V88q0-3.42,3.92-3.42c2.62,0,3.92,1.14,3.92,3.42Z" style="fill:#454b54"/><path d="M313.09,125c0,2.28-1.3,3.42-3.92,3.42s-3.92-1.14-3.92-3.42V96.3a12.63,12.63,0,0,1,.93-5.06,8,8,0,0,1,2.92-3.49A12.9,12.9,0,0,1,316.66,85h11.47a13.33,13.33,0,0,1,7.56,2.71q3.85,2.72,3.85,8.55V125q0,3.42-3.92,3.42T331.7,125v-28a6.34,6.34,0,0,0-1.14-3.56l.07.07q-.93-1.71-3.78-1.71h-8.91c-1.95,0-3.23.57-3.85,1.71a6.19,6.19,0,0,0-1,3.49Z" style="fill:#454b54"/><path d="M383,116.62q0,5.85-3.85,8.62a12.87,12.87,0,0,1-7.55,2.71h-12a12,12,0,0,1-7.34-2.71,9.42,9.42,0,0,1-2.64-3.6,12.67,12.67,0,0,1-.92-5V96.3q0-5.77,3.56-8.55a16.86,16.86,0,0,1,3.67-2,9.91,9.91,0,0,1,3.67-.75h12a12,12,0,0,1,3.78.68,16.69,16.69,0,0,1,3.84,1.81A8.65,8.65,0,0,1,382,90.81a11.56,11.56,0,0,1,1,5.07v3.56c0,2.28-1.3,3.42-3.92,3.42s-3.92-1.14-3.92-3.42V96.37a5.29,5.29,0,0,0-1.1-3.24,4.43,4.43,0,0,0-3.75-1.46h-8.91a4.42,4.42,0,0,0-3.74,1.46,5.22,5.22,0,0,0-1.1,3.24v20.18a5.24,5.24,0,0,0,1.1,3.2,4.35,4.35,0,0,0,3.74,1.5h8.91a4.36,4.36,0,0,0,3.75-1.5,5.3,5.3,0,0,0,1.1-3.2v-3.28q0-3.34,3.92-3.35c2.62,0,3.92,1.12,3.92,3.35Z" style="fill:#454b54"/><path d="M399.77,125c0,2.28-1.3,3.42-3.92,3.42s-3.92-1.14-3.92-3.42V74.35q0-3.42,3.92-3.42c2.62,0,3.92,1.14,3.92,3.42V85h15a13.33,13.33,0,0,1,7.56,2.71q3.86,2.72,3.85,8.55V125q0,3.42-3.92,3.42T418.38,125v-28a6.34,6.34,0,0,0-1.14-3.56l.07.07q-.93-1.71-3.78-1.71H399.77Z" style="fill:#454b54"/><path d="M446.46,122.11a5.63,5.63,0,0,1-1.64,4.1,5.77,5.77,0,0,1-8.12,0,5.63,5.63,0,0,1-1.64-4.1,5.53,5.53,0,0,1,1.64-4,5.75,5.75,0,0,1,8.12,0A5.53,5.53,0,0,1,446.46,122.11Z" style="fill:#454b54"/><path d="M465.14,129.59c0,3.95-1.17,6.68-3.49,8.2v-.07a18.62,18.62,0,0,1-3.82,1.67,14.06,14.06,0,0,1-4.24.61h-1.71c-1.76,0-2.64-1.09-2.64-3.28a3.61,3.61,0,0,1,.64-2.49,2.48,2.48,0,0,1,2-.86H453c1.71,0,2.84-.35,3.39-1a4.35,4.35,0,0,0,.82-2.75V88.1c0-2.28,1.3-3.42,3.92-3.42s4,1.14,4,3.42Zm1.21-53.82a5.16,5.16,0,0,1-1.6,3.85,5.35,5.35,0,0,1-3.89,1.57,5.34,5.34,0,0,1-5.41-5.42A5.34,5.34,0,0,1,457,71.85a5.27,5.27,0,0,1,3.85-1.57,5.39,5.39,0,0,1,3.89,1.57A5.26,5.26,0,0,1,466.35,75.77Z" style="fill:#454b54"/><path d="M498.36,103a10.31,10.31,0,0,1,3.81.82,20.81,20.81,0,0,1,3.82,2h-.08a9,9,0,0,1,2.86,3.5,12.1,12.1,0,0,1,1,5.13v2.14q0,5.85-3.85,8.62a12.92,12.92,0,0,1-3.77,2.07,11.91,11.91,0,0,1-3.78.64H486.24a11.86,11.86,0,0,1-3.78-.64,13.1,13.1,0,0,1-3.78-2.07q-3.84-2.7-3.84-8.62v-.86c0-2,1.3-3,3.92-3s4,1,4,3v.79a5.33,5.33,0,0,0,1.07,3.2c.71,1,2,1.5,3.77,1.5H497q2.72,0,3.78-1.5a5.33,5.33,0,0,0,1.07-3.2v-2a6.18,6.18,0,0,0-.25-1.78,4.2,4.2,0,0,0-.82-1.53,4.38,4.38,0,0,0-1.49-1.11,5.54,5.54,0,0,0-2.29-.43H486.6a14.17,14.17,0,0,1-7.63-2.56q-3.78-2.43-3.78-8.34V96.37a11.84,11.84,0,0,1,1-5A8.76,8.76,0,0,1,479,87.82H479a19.54,19.54,0,0,1,3.78-2A10.54,10.54,0,0,1,486.6,85H498a10.31,10.31,0,0,1,3.82.78,22.43,22.43,0,0,1,3.81,2h-.07a8.93,8.93,0,0,1,2.85,3.53,12,12,0,0,1,1,5V97a2.45,2.45,0,0,1-1,2.17,5.64,5.64,0,0,1-2.92.75c-2.62,0-3.92-.93-3.92-2.92v-.57a5.26,5.26,0,0,0-1.11-3.25,4.41,4.41,0,0,0-3.74-1.46h-8.84a4.4,4.4,0,0,0-3.74,1.46A5.26,5.26,0,0,0,483,96.45v1.71a5.5,5.5,0,0,0,1.11,3.35,4.35,4.35,0,0,0,3.74,1.49Z" style="fill:#454b54"/><path d="M156.28,142.08H8.85V55a6.63,6.63,0,0,1,6.7-6.7h134a6.64,6.64,0,0,1,6.7,6.7Z" style="fill:#dde9f1"/><path d="M156.28,75.06H8.85V55a6.63,6.63,0,0,1,6.7-6.7h134a6.64,6.64,0,0,1,6.7,6.7Z" style="fill:#fff"/><path d="M156.28,132.69a4,4,0,0,1-4-4V55a2.69,2.69,0,0,0-2.68-2.68h-134A2.69,2.69,0,0,0,12.87,55v64.34a4,4,0,0,1-4,4,4,4,0,0,1-4-4V55A10.75,10.75,0,0,1,15.55,44.23h134A10.75,10.75,0,0,1,160.3,55v73.72A4,4,0,0,1,156.28,132.69Z" style="fill:#454b54"/><path d="M142.88,59H82.56a4,4,0,0,0,0,8h60.32a4,4,0,0,0,0-8Z" style="fill:#7ca5c6"/><path d="M46.24,60.18a3.9,3.9,0,0,0,0,5.63A3.89,3.89,0,0,0,49.06,67a3.66,3.66,0,0,0,2.81-1.21A3.83,3.83,0,0,0,53.08,63a3.63,3.63,0,0,0-1.21-2.82A4.14,4.14,0,0,0,46.24,60.18Z" style="fill:#7ca5c6"/><path d="M32.84,60.18a3.88,3.88,0,0,0,0,5.63A3.86,3.86,0,0,0,35.65,67a3.67,3.67,0,0,0,2.82-1.21A3.85,3.85,0,0,0,39.67,63a3.66,3.66,0,0,0-1.2-2.82A4.14,4.14,0,0,0,32.84,60.18Z" style="fill:#7ca5c6"/><path d="M19.43,60.18a3.9,3.9,0,0,0,0,5.63A3.9,3.9,0,0,0,22.25,67a3.66,3.66,0,0,0,2.81-1.21A3.83,3.83,0,0,0,26.27,63a3.63,3.63,0,0,0-1.21-2.82A4.14,4.14,0,0,0,19.43,60.18Z" style="fill:#7ca5c6"/><path d="M109.1,58.84,98.92,54.42a6.72,6.72,0,0,1-4.29-6.3V22.52a25.16,25.16,0,0,0-6-16.35,6.23,6.23,0,0,0-9.52,0,26,26,0,0,0-5.9,16.35V47.85a7,7,0,0,1-4.42,6.57L59,58.17a7,7,0,0,0-4.42,6.57v7.37h58.84V65.27A7.33,7.33,0,0,0,109.1,58.84Z" style="fill:#fff"/><path d="M94.63,22.52a25.16,25.16,0,0,0-6-16.35,6.23,6.23,0,0,0-9.52,0,26,26,0,0,0-5.9,16.35Z" style="fill:#454b54"/><path d="M140.2,138.05a18.65,18.65,0,0,0-6.7,1.21A13.42,13.42,0,0,0,120.09,126a15.33,15.33,0,0,0-2.41.27,26.51,26.51,0,0,0,3.75-13.67,26.88,26.88,0,0,0-26.8-26.81,23.44,23.44,0,0,0-6.84.94,13.44,13.44,0,0,0-5.23-.94,16.2,16.2,0,0,0-16.08,14.88,19.49,19.49,0,0,0-2.68-.13A22.81,22.81,0,0,0,41.15,120.9a38.94,38.94,0,0,0-4.16-.27A29.4,29.4,0,0,0,7.51,150.12,23.61,23.61,0,0,0,8,155.48H160.17A20.22,20.22,0,0,0,140.2,138.05Z" style="fill:#fff"/><path d="M93.15,159.5H4a4,4,0,0,1,0-8H93.15a4,4,0,0,1,4,4A4,4,0,0,1,93.15,159.5Z" style="fill:#454b54"/><path d="M146.77,159.5H120a4,4,0,0,1,0-8h26.81a4,4,0,0,1,4,4A4,4,0,0,1,146.77,159.5Z" style="fill:#454b54"/><path d="M8,159.5a3.89,3.89,0,0,1-3.88-3.35,23,23,0,0,1-.68-6A33.45,33.45,0,0,1,37.8,116.61a26.75,26.75,0,0,1,26-20.11,4,4,0,0,1,0,8A18.63,18.63,0,0,0,45.17,121.3a4.46,4.46,0,0,1-1.48,2.82,4.17,4.17,0,0,1-3.08.8,33.71,33.71,0,0,0-3.62-.27,25.45,25.45,0,0,0-25.46,25.47,28.75,28.75,0,0,0,.4,4.69,4.07,4.07,0,0,1-3.22,4.69Z" style="fill:#454b54"/><path d="M160,159.5a4,4,0,0,1-4-3.48,16.17,16.17,0,0,0-16-13.94,15.12,15.12,0,0,0-5.37.93,3.9,3.9,0,0,1-3.62-.53,4.15,4.15,0,0,1-1.74-3.22A9.39,9.39,0,0,0,120,130a7.86,7.86,0,0,0-1.74.14,4.19,4.19,0,0,1-4-1.61,3.86,3.86,0,0,1-.14-4.29,21.74,21.74,0,0,0,3.35-11.66,22.85,22.85,0,0,0-14.47-21.31,4,4,0,0,1,3-7.51,30.88,30.88,0,0,1,19.57,28.82,30,30,0,0,1-1.61,9.78,17.34,17.34,0,0,1,12.86,11.93,31.54,31.54,0,0,1,3.49-.27,24.13,24.13,0,0,1,23.86,20.91,4.06,4.06,0,0,1-3.49,4.56Z" style="fill:#454b54"/><polyline points="74.52 119.29 74.52 73.72 93.29 73.72 93.29 119.29" style="fill:#fff"/><path d="M93.29,123.31a4,4,0,0,1-4-4V73.72a4,4,0,0,1,8,0v45.57A4,4,0,0,1,93.29,123.31Z" style="fill:#454b54"/><path d="M74.52,123.31a4,4,0,0,1-4-4V73.72a4,4,0,0,1,8,0v45.57A4,4,0,0,1,74.52,123.31Z" style="fill:#454b54"/><path d="M74.52,143.42a4,4,0,0,1-2.81-6.84,4.14,4.14,0,0,1,5.63,0,3.85,3.85,0,0,1,1.2,2.81,4.12,4.12,0,0,1-4,4Z" style="fill:#454b54"/><path d="M113.39,76.27h-59a4,4,0,0,1-4-4V64.87a11.24,11.24,0,0,1,7-10.32l9.78-3.75A2.9,2.9,0,0,0,69,48V22.52a29.32,29.32,0,0,1,7-18.9A10.7,10.7,0,0,1,83.91,0a10.21,10.21,0,0,1,7.77,3.62,28.88,28.88,0,0,1,7,18.9v25.6a3,3,0,0,0,1.88,2.81l10.18,4.43a11.15,11.15,0,0,1,6.7,10.18v6.84A4,4,0,0,1,113.39,76.27Zm-54.95-8h50.93V65.41a3,3,0,0,0-1.88-2.82L97.31,58.17A11.16,11.16,0,0,1,90.61,48V22.52a20.59,20.59,0,0,0-5.1-13.67A2.28,2.28,0,0,0,83.77,8,2.48,2.48,0,0,0,82,8.85a21.53,21.53,0,0,0-5.09,13.67V47.85a11.24,11.24,0,0,1-7,10.32l-9.79,3.75a2.91,2.91,0,0,0-1.88,2.82v3.48Z" style="fill:#454b54"/></svg>